<svg width="107" height="24" viewBox="0 0 107 24" fill="none" xmlns="http://www.w3.org/2000/svg">
<g clip-path="url(#clip0_1325_17149)">
<path d="M0.860843 14.0667L2.19477 13.8567V1.51959L0.699524 1.32555L0.780183 0H10.0941L9.86807 3.73316L8.0091 3.68446L7.89648 1.34153H5.01405V6.88878H6.26959L6.56027 5.61192L7.86528 5.64388V9.47445H6.57625L6.26883 8.16563H5.01405V14.0507H7.91246L8.18716 11.4978L10.1428 11.5625L10.2881 15.4569H0.796924L0.860843 14.0667ZM11.1411 15.4569L11.1898 14.3094L12.2369 14.0994V6.32112L11.0125 6.20774V5.04426L14.0753 4.60824L14.3059 5.27102V5.70704C15.0493 4.93088 15.9381 4.47888 17.0696 4.47888C18.7345 4.47888 19.9627 5.48104 19.9627 7.48535V14.1002L21.0737 14.3102L21.009 15.4577H17.3968V8.04236C17.3968 6.97552 17.0049 6.37742 16.0507 6.37742C15.7273 6.37742 15.4967 6.4421 15.2388 6.52276C15.0767 6.65212 14.9314 6.84616 14.802 7.02422V14.0994L15.9008 14.3094L15.8201 15.4569H11.1411ZM69.5759 15.4569L69.6246 14.3094L70.6716 14.0994V6.32112L69.4473 6.20774V5.04426L72.5101 4.60824L72.7399 5.27102V5.70704C73.4833 4.93088 74.3721 4.47888 75.5036 4.47888C77.1685 4.47888 78.3967 5.48104 78.3967 7.48535V14.1002L79.5076 14.3102L79.443 15.4577H75.8308V8.04236C75.8308 6.97552 75.4381 6.37742 74.4847 6.37742C74.1621 6.37742 73.9315 6.4421 73.6728 6.52276C73.5115 6.65212 73.3653 6.84616 73.2367 7.02422V14.0994L74.3355 14.3094L74.2549 15.4569H69.5759ZM26.8484 15.2424C26.4284 15.4204 25.669 15.6137 24.6828 15.6137C23.3899 15.6137 22.1861 15.0323 22.1861 13.1406V6.31579L20.958 6.12175L21.0067 4.76424L22.3969 4.69956L22.995 2.63056L24.765 2.54914V4.76347H26.6886L26.5555 6.12099L24.7992 6.31579V13.1247C24.7992 13.69 25.1066 14.0621 25.688 14.0621H26.7343L26.8484 15.2424ZM99.2411 15.4569L99.2898 14.3414L100.276 14.1154V6.32188L99.1125 6.2085V5.04426L102.276 4.60824L102.486 5.36766V5.6104C103.311 4.99632 104.441 4.59226 105.784 4.59226L106.252 4.99632L105.929 7.92213L104.183 7.85745L104.006 6.28992C103.602 6.3546 103.214 6.46798 102.891 6.69398V14.1162L103.99 14.3422L103.909 15.4577H99.2411V15.4569ZM53.6822 15.4569L53.7309 14.3414L54.717 14.1154V6.32188L53.5528 6.2085V5.04426L56.716 4.60824L56.926 5.36766V5.6104C57.7509 4.99632 58.8816 4.59226 60.2239 4.59226L60.6927 4.99632L60.3693 7.92213L58.6237 7.85745L58.4464 6.28992C58.0423 6.3546 57.6542 6.46798 57.3308 6.69398V14.1162L58.4304 14.3422L58.3498 15.4577H53.6822V15.4569ZM27.6192 15.4569L27.6679 14.3414L28.6541 14.1154V6.32188L27.4899 6.2085V5.04426L30.6539 4.60824L30.8639 5.36766V5.6104C31.688 4.99632 32.8195 4.59226 34.161 4.59226L34.6298 4.99632L34.3064 7.92213L32.5608 7.85745L32.3827 6.28992C31.9787 6.3546 31.5906 6.46798 31.2672 6.69398V14.1162L32.3667 14.3422L32.2861 15.4577H27.6192V15.4569ZM37.6469 10.7171C37.6469 12.5753 38.4504 14.0142 40.0614 14.0142C40.8854 14.0142 41.5482 13.8361 42.3244 13.4808L42.7612 14.4989C41.969 15.129 40.817 15.6137 39.362 15.6137C36.5458 15.6137 34.9189 13.1734 34.9189 10.0375C34.9189 7.37045 36.0908 4.45225 39.3316 4.45225C42.1463 4.45225 43.2147 7.06379 43.2147 9.97286L42.94 10.6676L37.6469 10.7171ZM37.5982 9.47216L40.8512 9.32682C40.7865 8.03323 40.5187 5.97185 39.2456 5.97185C38.9435 5.97185 38.7259 6.02055 38.3378 6.23056C37.8143 7.11934 37.5913 8.72568 37.5982 9.47216ZM82.591 10.7171C82.591 12.5753 83.3945 14.0142 85.0054 14.0142C85.8303 14.0142 86.4923 13.8361 87.2685 13.4808L87.7045 14.4989C86.9131 15.129 85.7603 15.6137 84.3054 15.6137C81.4891 15.6137 79.8622 13.1734 79.8622 10.0375C79.8622 7.37045 81.0333 4.45225 84.2749 4.45225C87.0896 4.45225 88.158 7.06379 88.158 9.97286L87.8833 10.6676L82.591 10.7171ZM82.5423 9.47216L85.7953 9.32682C85.7306 8.03323 85.4628 5.97185 84.1897 5.97185C83.8876 5.97185 83.67 6.02055 83.2819 6.23056C82.7584 7.11934 82.5362 8.72568 82.5423 9.47216ZM63.709 10.7171C63.709 12.5753 64.5126 14.0142 66.1235 14.0142C66.9483 14.0142 67.6104 13.8361 68.3865 13.4808L68.8225 14.4989C68.0312 15.129 66.8783 15.6137 65.4234 15.6137C62.6072 15.6137 60.9803 13.1734 60.9803 10.0375C60.9803 7.37045 62.1514 4.45225 65.3922 4.45225C68.2069 4.45225 69.2753 7.06379 69.2753 9.97286L69.0006 10.6676L63.709 10.7171ZM63.6603 9.47216L66.9134 9.32682C66.8487 8.03323 66.5808 5.97185 65.3078 5.97185C65.0057 5.97185 64.788 6.02055 64.4 6.23056C63.8764 7.11934 63.6542 8.72568 63.6603 9.47216ZM95.4698 15.4569L95.1952 14.5354C94.4837 15.2142 93.7889 15.6183 92.7061 15.6183C91.0412 15.6183 89.5505 14.7782 89.5505 12.4824V6.04337L88.3262 5.92999V4.91186L91.8409 4.5078L92.1156 5.4293V12.1598C92.1156 13.34 92.5912 13.9541 93.5462 13.9541C93.8179 13.9541 94.161 13.9214 94.4677 13.7928C94.645 13.6147 94.8071 13.4047 94.9524 13.1947V6.04337L93.6915 5.92999V4.91186L97.2428 4.5078L97.5175 5.4293V14.0994L98.6125 14.3094L98.4832 15.4569H95.4698ZM48.4789 14.0667C47.9135 14.0667 47.4767 13.9693 47.1213 13.776V6.939C47.2667 6.713 47.4447 6.50298 47.6228 6.30894C47.9333 6.19914 48.2606 6.14454 48.59 6.14762C50.0433 6.14762 50.2838 7.62004 50.2838 10.2552C50.2838 12.7929 49.9064 13.4914 49.8052 13.7768C49.4163 13.9701 48.9963 14.0667 48.4789 14.0667ZM52.8139 9.7773C52.8139 6.51363 51.8445 4.4629 49.4392 4.4629C47.8397 4.4629 47.0795 5.38592 46.766 5.77552V5.42016L46.4913 4.49867L43.3319 4.93545V6.04946L44.5562 6.21078V19.394L43.5213 19.6041L43.4726 20.7036H48.1395L48.2201 19.6041L47.1213 19.394V15.2134C47.5581 15.4562 48.1836 15.6175 48.8631 15.6175C52.7782 15.619 52.8139 11.6142 52.8139 9.7773ZM105.588 13.9442C106.12 13.9442 106.459 14.2592 106.459 14.7021C106.459 15.1488 106.111 15.46 105.588 15.46C105.074 15.46 104.716 15.1488 104.716 14.7021C104.716 14.2547 105.069 13.9442 105.588 13.9442ZM105.588 15.2226C105.95 15.2226 106.187 15.0087 106.187 14.7013C106.187 14.3939 105.95 14.1801 105.588 14.1801C105.23 14.1801 104.993 14.3901 104.993 14.7013C104.993 15.0087 105.23 15.2226 105.588 15.2226ZM105.208 15.0438L105.213 14.9387L105.303 14.919V14.4525L105.2 14.4411L105.205 14.3361H105.62C105.799 14.3361 105.965 14.3939 105.96 14.5499C105.956 14.6587 105.893 14.7211 105.808 14.7561C105.848 14.8222 105.899 14.8803 105.96 14.9273L106.023 14.9387L106.013 15.0438H105.803C105.718 14.9726 105.65 14.8838 105.603 14.7835H105.536V14.9197L105.625 14.9395L105.616 15.0445H105.208V15.0438ZM105.534 14.4647V14.6671H105.61C105.713 14.6671 105.736 14.6283 105.736 14.5697C105.736 14.4807 105.669 14.4647 105.583 14.4647H105.534ZM58.9319 22.9301H58.9395L60.752 18.4497H61.5921V23.8623H61.0412V19.1604H61.026L59.0688 23.8623H58.7782L56.821 19.1604H56.8058V23.8623H56.2556V18.4497H57.0965L58.9319 22.9301ZM63.7707 23.8623H63.2198V18.4497H63.7707V23.8623ZM65.3991 18.4497H67.1957C67.5312 18.4497 67.8699 18.506 68.2085 18.6179C68.5471 18.7297 68.8537 18.8994 69.1262 19.1262C69.3978 19.3537 69.6185 19.636 69.7874 19.9746C69.9556 20.314 70.0393 20.7082 70.0393 21.1564C70.0393 21.6107 69.9556 22.0048 69.7874 22.3419C69.6278 22.666 69.4026 22.9533 69.1262 23.1858C68.8537 23.4133 68.5471 23.5822 68.2085 23.6949C67.8699 23.8075 67.5312 23.863 67.1957 23.863H65.3991V18.4497ZM65.9492 23.3737H67.0427C67.4506 23.3737 67.8059 23.3098 68.1088 23.182C68.4116 23.0549 68.6635 22.8875 68.8621 22.6813C69.0584 22.4792 69.2105 22.2384 69.3088 21.9744C69.5085 21.4473 69.5085 20.8654 69.3088 20.3384C69.2102 20.0742 69.0581 19.8333 68.8621 19.6307C68.6477 19.4144 68.3914 19.2443 68.1088 19.1308C67.8059 19.0029 67.4506 18.939 67.0427 18.939H65.9492V23.3737ZM71.3778 18.4497H73.1744C73.5099 18.4497 73.8485 18.506 74.1872 18.6179C74.5258 18.7297 74.8324 18.8994 75.1049 19.1262C75.3765 19.3537 75.5972 19.636 75.7661 19.9746C75.9343 20.314 76.018 20.7082 76.018 21.1564C76.018 21.6107 75.9343 22.0048 75.7661 22.3419C75.6065 22.666 75.3813 22.9533 75.1049 23.1858C74.8324 23.4133 74.5258 23.5822 74.1872 23.6949C73.8485 23.8075 73.5099 23.863 73.1744 23.863H71.3778V18.4497ZM71.9287 23.3737H73.0222C73.43 23.3737 73.7854 23.3098 74.0882 23.182C74.3911 23.0549 74.643 22.8875 74.8416 22.6813C75.0379 22.4792 75.19 22.2384 75.2882 21.9744C75.4879 21.4473 75.4879 20.8654 75.2882 20.3384C75.1896 20.0742 75.0376 19.8333 74.8416 19.6307C74.6272 19.4144 74.3708 19.2443 74.0882 19.1308C73.7854 19.0029 73.43 18.939 73.0222 18.939H71.9287V23.3737ZM77.9066 23.3737H80.4291V23.863H77.3557V18.4505H77.9066V23.3737ZM81.9967 23.3737H84.8943V23.863H81.4465V18.4505H84.803V18.9398H81.9967V20.7972H84.6189V21.2873H81.9967V23.3737ZM88.8162 23.3737H91.7139V23.863H88.2661V18.4505H91.6225V18.9398H88.8162V20.7972H91.4384V21.2873H88.8162V23.3737ZM92.9451 23.8623H92.3409L94.68 18.4497H95.2149L97.5396 23.8623H96.9278L96.3312 22.4401H93.5333L92.9451 23.8623ZM93.7402 21.9356H96.1258L94.9334 19.0615L93.7402 21.9356ZM101.148 19.3217C101.031 19.1581 100.88 19.0273 100.697 18.9276C100.513 18.8279 100.292 18.7784 100.032 18.7784C99.8985 18.7784 99.7638 18.799 99.6269 18.8401C99.4917 18.8796 99.3646 18.943 99.2517 19.0273C99.1406 19.111 99.0493 19.2167 98.9808 19.3446C98.9123 19.4717 98.8773 19.6223 98.8773 19.7958C98.8773 19.9693 98.9108 20.1116 98.977 20.2235C99.0432 20.3353 99.13 20.4304 99.2403 20.5103C99.3499 20.5895 99.4739 20.6534 99.6132 20.7051C99.7539 20.7561 99.8993 20.8071 100.051 20.8581C100.239 20.919 100.429 20.9852 100.62 21.0567C100.81 21.1282 100.982 21.2211 101.134 21.336C101.286 21.4501 101.411 21.5962 101.508 21.7712C101.605 21.947 101.652 22.1699 101.652 22.4401C101.652 22.7102 101.601 22.9438 101.498 23.1401C101.395 23.3365 101.261 23.4985 101.097 23.6256C100.929 23.7547 100.737 23.8508 100.533 23.9087C100.322 23.9696 100.109 24 99.8947 24C99.7311 24 99.5683 23.984 99.4047 23.9505C99.2444 23.9186 99.0882 23.8689 98.939 23.8022C98.6415 23.6683 98.3834 23.4603 98.1894 23.198L98.6635 22.8464C98.7807 23.0397 98.9451 23.2018 99.1566 23.3319C99.3674 23.462 99.6162 23.5267 99.9016 23.5267C100.039 23.5267 100.179 23.5054 100.322 23.462C100.465 23.4186 100.593 23.3517 100.708 23.2626C100.823 23.1736 100.917 23.064 100.991 22.9339C101.065 22.8038 101.102 22.6524 101.102 22.4789C101.102 22.2902 101.065 22.1334 100.991 22.0086C100.917 21.8838 100.819 21.7788 100.697 21.6951C100.574 21.6114 100.434 21.5414 100.276 21.4851C100.111 21.4275 99.9452 21.3715 99.779 21.3169C99.6005 21.2611 99.4246 21.1974 99.2517 21.1259C99.083 21.0574 98.9259 20.9632 98.786 20.8467C98.6466 20.7299 98.5331 20.5853 98.4527 20.4221C98.369 20.2539 98.3272 20.0477 98.3272 19.8034C98.3272 19.5432 98.3789 19.3187 98.4839 19.1308C98.5882 18.942 98.7244 18.7868 98.8926 18.6643C99.0607 18.5418 99.2471 18.4528 99.4503 18.3964C99.6535 18.3401 99.8551 18.3127 100.055 18.3127C100.421 18.3127 100.735 18.3774 100.994 18.5075C101.254 18.6377 101.451 18.7921 101.582 18.9702L101.148 19.3217ZM104.627 23.8623H104.076V18.9382H102.264V18.449H106.438V18.9382H104.626V23.8623H104.627Z" fill="#121C30"/>
</g>
<defs>
<clipPath id="clip0_1325_17149">
<rect width="105.76" height="24" fill="white" transform="translate(0.699524)"/>
</clipPath>
</defs>
</svg>
