<svg width="90" height="24" viewBox="0 0 90 24" fill="none" xmlns="http://www.w3.org/2000/svg">
<g clip-path="url(#clip0_1325_17146)">
<path d="M50.8972 8.08916C50.8972 5.51138 50.9416 3.11138 51.075 0.88916L44.275 2.17805V2.80027L44.9416 2.88916C45.4305 2.9336 45.7416 3.11138 45.9194 3.37805C46.0972 3.68916 46.2305 4.13361 46.3194 4.80027C46.4083 6.08916 46.4972 9.0225 46.4528 13.6447C46.4528 18.2225 46.4083 21.1114 46.3194 22.2225C48.7639 22.7558 50.675 22.9781 52.0972 22.9781C54.7639 22.9781 56.8528 22.2225 58.3639 20.6669C59.875 19.1558 60.675 17.0225 60.675 14.4003C60.675 12.3114 60.0972 10.5781 58.9416 9.20027C57.7861 7.82249 56.3194 7.15583 54.5861 7.15583C53.4305 7.15583 52.2305 7.46694 50.8972 8.08916ZM51.0305 21.7781C50.9416 20.3558 50.8527 16.0892 50.8527 9.11138C51.2528 8.97805 51.7861 8.88916 52.4528 8.88916C53.5194 8.88916 54.3639 9.42249 54.9861 10.5336C55.6083 11.6447 55.9194 12.9781 55.9194 14.6669C55.9194 16.7558 55.5639 18.4447 54.8527 19.8669C54.1416 21.2447 53.2528 21.9558 52.1416 21.9558C51.7861 21.8669 51.4305 21.8225 51.0305 21.7781ZM18.7639 1.3336H0.986084V2.22249L1.91942 2.31138C2.63053 2.44472 3.11942 2.71138 3.43053 3.11138C3.74164 3.55583 3.91942 4.26694 3.96386 5.24472C4.31942 10.0447 4.31942 14.5336 3.96386 18.6669C3.87497 19.6447 3.6972 20.3558 3.43053 20.8003C3.11942 21.2447 2.63053 21.5114 1.91942 21.6003L0.986084 21.7336V22.6225H12.4528V21.7336L11.2528 21.6447C10.5416 21.5558 10.0528 21.2447 9.74164 20.8447C9.43053 20.4003 9.25275 19.6892 9.20831 18.7114C9.07497 16.9336 8.98608 14.8892 8.98608 12.6225L11.3861 12.6669C12.675 12.7114 13.5639 13.6892 14.0083 15.6447H14.8972V8.40027H14.0083C13.5639 10.3114 12.7194 11.2892 11.3861 11.3336L8.98608 11.3781C8.98608 7.37805 9.07497 4.53361 9.20831 2.80027H12.7194C15.2083 2.80027 16.8972 4.40027 17.875 7.60027L18.9416 7.28916L18.7639 1.3336ZM16.675 15.0225C16.675 17.3336 17.3416 19.2447 18.6305 20.7558C19.9194 22.2669 21.8305 22.9781 24.2305 22.9781C26.6305 22.9781 28.5861 22.2225 30.0083 20.6669C31.4305 19.1558 32.0972 17.2447 32.0972 14.9336C32.0972 12.6225 31.4305 10.7114 30.1416 9.20027C28.8528 7.68916 26.9416 6.97805 24.5416 6.97805C22.1416 6.97805 20.1861 7.73361 18.7639 9.28916C17.3416 10.8003 16.675 12.7114 16.675 15.0225ZM26.5861 9.95583C27.1194 11.2447 27.3416 12.9336 27.3416 14.9781C27.3416 19.6892 26.3639 22.0003 24.4528 22.0003C23.475 22.0003 22.7194 21.3336 22.1861 20.0003C21.6528 18.6669 21.4305 16.9781 21.4305 14.9781C21.4305 10.3114 22.4083 8.00027 24.3194 8.00027C25.2972 7.95583 26.0527 8.62249 26.5861 9.95583ZM64.1416 20.7558C65.6083 22.2225 67.475 22.9781 69.6972 22.9781C71.075 22.9781 72.275 22.7114 73.3416 22.1336C74.4083 21.6003 75.2527 20.9336 75.8305 20.1336L75.3861 19.6003C74.4083 20.3558 73.2972 20.7114 72.0083 20.7114C70.2305 20.7114 68.8528 20.1336 67.9194 18.9336C66.9416 17.7336 66.4972 16.2225 66.5861 14.2669H76.0972C76.0972 12.1336 75.5639 10.4003 74.4528 9.02249C73.3416 7.68916 71.7861 7.02249 69.7861 7.02249C67.2972 7.02249 65.3861 7.82249 64.0083 9.37805C62.6305 10.9336 61.9639 12.8447 61.9639 15.1114C61.9639 17.4225 62.675 19.2892 64.1416 20.7558ZM67.4305 9.60027C67.9194 8.53361 68.5416 8.00027 69.3861 8.00027C70.7194 8.00027 71.3861 9.68916 71.3861 13.1114L66.675 13.2003C66.7194 11.8669 66.9416 10.6669 67.4305 9.60027ZM88.0527 7.82249C86.8527 7.28916 85.3416 6.97805 83.5194 6.97805C81.6527 6.97805 80.1861 7.46694 79.075 8.40027C77.9639 9.33361 77.3861 10.4892 77.3861 11.8669C77.3861 13.0669 77.7416 14.0003 78.4083 14.6669C79.075 15.3336 80.1416 15.9114 81.5194 16.4003C82.7639 16.8447 83.6527 17.2892 84.0972 17.6892C84.5416 18.1336 84.8083 18.6225 84.8083 19.2892C84.8083 19.9114 84.5861 20.4892 84.0972 20.9336C83.6527 21.4225 83.0305 21.6447 82.2305 21.6447C80.275 21.6447 78.8083 20.2225 77.7861 17.378L77.0305 17.6003L77.2083 22.0447C78.8083 22.6669 80.5861 22.9781 82.5416 22.9781C84.5861 22.9781 86.1416 22.5336 87.2972 21.6003C88.4528 20.7114 89.0305 19.4225 89.0305 17.8225C89.0305 16.7558 88.7639 15.8669 88.1861 15.2003C87.6083 14.5336 86.675 13.9558 85.3416 13.4225C83.875 12.8892 82.8528 12.4003 82.3194 11.9558C81.7861 11.5114 81.5194 10.9781 81.5194 10.3114C81.5194 9.64472 81.6972 9.11138 82.0972 8.66694C82.4972 8.22249 82.9861 8.04472 83.6083 8.04472C85.3861 8.04472 86.675 9.33361 87.475 11.8669L88.2305 11.6447L88.0527 7.82249ZM45.2972 7.42249C44.675 7.11138 44.0083 6.97805 43.2528 6.97805C42.4972 6.97805 41.7416 7.28916 40.8972 7.91138C40.0528 8.53361 39.4305 9.37805 38.9416 10.5336L38.9861 6.97805L32.2305 8.31138V8.93361L32.8972 8.97805C33.7416 9.06694 34.2305 9.73361 34.3194 10.9336C34.5861 13.6892 34.5861 16.6225 34.3194 19.7336C34.2305 20.9336 33.7416 21.5558 32.8972 21.6892L32.2305 21.7781V22.6225H41.6528V21.7781L40.4528 21.6892C39.6083 21.6003 39.1194 20.9336 39.0305 19.7336C38.7639 17.1558 38.7194 14.4003 38.9416 11.5558C39.2083 11.1114 39.7861 10.8447 40.675 10.7558C41.5639 10.6669 42.5861 10.9336 43.6528 11.5558L45.2972 7.42249Z" fill="#121C30"/>
</g>
<defs>
<clipPath id="clip0_1325_17146">
<rect width="88.8889" height="24" fill="white" transform="translate(0.540771)"/>
</clipPath>
</defs>
</svg>
