<svg width="94" height="24" viewBox="0 0 94 24" fill="none" xmlns="http://www.w3.org/2000/svg">
<g clip-path="url(#clip0_1325_17151)">
<path d="M27.5985 2.73054V0H38.0416V2.73054H34.3051V11.018H31.2871V2.73054H27.5985ZM42.8799 2.97006C43.3111 2.77844 43.7901 2.63473 44.365 2.63473C44.8919 2.63473 45.2752 2.73054 45.6584 2.87425C46.0416 3.01796 46.2811 3.25749 46.5207 3.49701C46.7123 3.78443 46.9039 4.11976 46.9518 4.5509C47.0476 4.93413 47.0955 5.41317 47.0955 5.89222V11.018H44.0776V6.51497C44.0776 6.37126 44.0776 6.13174 44.0296 5.98802C43.9817 5.84431 43.9338 5.6527 43.8859 5.55689C43.7901 5.41317 43.7422 5.31737 43.5985 5.22156C43.4548 5.12575 43.2632 5.07784 43.0716 5.07784C42.6883 5.07784 42.4009 5.22156 42.2093 5.46108C41.9698 5.7006 41.874 6.13174 41.874 6.75449V11.018H38.856V0H41.874V3.92814C42.0656 3.49701 42.4009 3.16168 42.8799 2.97006ZM50.353 10.9222C49.7781 10.7305 49.2991 10.3952 48.9159 10.012C48.5326 9.62874 48.2452 9.1497 48.0536 8.62276C47.862 8.0479 47.7183 7.52096 47.7183 6.8503C47.7183 6.22755 47.862 5.60479 48.1015 5.07784C48.341 4.5509 48.6764 4.07186 49.0117 3.73653C49.3949 3.35329 49.874 3.11377 50.4009 2.87425C50.9279 2.68263 51.5027 2.53892 52.1255 2.53892C52.844 2.53892 53.4668 2.68263 54.0416 2.92216C54.6165 3.20958 55.0955 3.54491 55.4788 4.02395C55.862 4.50299 56.1494 5.02994 56.341 5.6527C56.5326 6.27545 56.5805 6.94611 56.5326 7.66467H50.6404C50.6883 8.0479 50.832 8.43114 51.1674 8.67066C51.4548 8.91018 51.838 9.05389 52.3171 9.05389C52.6045 9.05389 52.8919 8.95808 53.1794 8.86228C53.4668 8.76647 53.6105 8.52695 53.7542 8.33533H56.6285C56.5326 8.67066 56.3889 8.95808 56.1494 9.29341C55.9578 9.67665 55.6225 9.96407 55.2871 10.2515C54.9039 10.5389 54.5207 10.8263 53.9937 10.9701C53.5147 11.1617 52.9398 11.2575 52.2692 11.2575C51.5506 11.2575 50.8799 11.1138 50.353 10.9222ZM51.838 4.69461C51.6943 4.74252 51.5027 4.83832 51.359 4.93413C51.2153 5.07785 51.0716 5.17365 50.9758 5.31737C50.832 5.46108 50.7841 5.7006 50.7362 5.94012H53.8979C53.85 5.7006 53.8021 5.50898 53.7063 5.31737C53.5626 5.17365 53.4668 4.98204 53.3231 4.93413C53.1793 4.79042 52.9877 4.74252 52.844 4.69461C52.7003 4.64671 52.4608 4.5988 52.3171 4.5988C52.1255 4.5988 52.0297 4.64671 51.838 4.69461ZM34.353 16.7665V23.7605H31.335V12.6946H35.2632L38.8081 19.7365V12.6946H41.8261V23.7126H37.8979L34.353 16.7665ZM47.7662 17.7725C47.6704 17.6287 47.6225 17.5329 47.4788 17.4371C47.335 17.3413 47.2392 17.2934 47.0955 17.2934C46.9518 17.2934 46.7602 17.2455 46.6165 17.2455C46.2332 17.2455 45.8979 17.3413 45.6584 17.485C45.4189 17.6287 45.2752 17.9162 45.2273 18.2994H42.5925C42.6404 17.9162 42.7362 17.5329 42.9279 17.1976C43.1195 16.8144 43.4069 16.5269 43.7422 16.2395C44.1255 15.9521 44.5566 15.7126 45.0356 15.5689C45.5626 15.4251 46.1374 15.3293 46.856 15.3293C47.4788 15.3293 47.9578 15.4252 48.4847 15.521C48.9638 15.6647 49.3949 15.8563 49.7782 16.1437C50.1614 16.4311 50.4009 16.7665 50.6404 17.2455C50.832 17.7246 50.9279 18.2994 50.9279 18.9701V21.3653C50.9279 21.6527 50.9279 21.9401 50.9758 22.2275C50.9758 22.515 51.0237 22.8503 51.0237 23.0898C51.0716 23.3772 51.0716 23.6168 51.1195 23.8563H48.2931V22.7545C47.9578 23.1856 47.5746 23.5689 47.0955 23.7126C46.6165 23.9042 46.0416 24 45.5147 24C45.1314 24 44.7482 23.9521 44.4129 23.8563C44.0297 23.7126 43.7422 23.5689 43.5027 23.3293C43.2153 23.1377 43.0237 22.8503 42.8799 22.5629C42.7362 22.2754 42.6404 21.9401 42.6404 21.5569C42.6404 21.0778 42.7841 20.6946 43.0237 20.3114C43.2632 19.9281 43.6464 19.6886 44.0776 19.4491C44.5566 19.2096 45.1314 19.0659 45.8021 18.8743C46.4728 18.7305 47.2392 18.6347 48.1015 18.5868V18.3473C47.862 18.0599 47.8141 17.9162 47.7662 17.7725ZM46.1374 20.3593C45.7542 20.503 45.5147 20.7425 45.5147 21.1257C45.5147 21.2695 45.6105 21.509 45.7542 21.6527C45.8979 21.7964 46.1374 21.8922 46.5207 21.8922C46.7123 21.8922 46.9039 21.8443 47.0955 21.7964C47.2392 21.7485 47.4308 21.6527 47.5746 21.5569C47.7183 21.4132 47.8141 21.2695 47.9099 21.0778C48.0057 20.8862 48.0536 20.5988 48.0536 20.3114V20.0719C47.1913 20.1198 46.5207 20.2156 46.1374 20.3593ZM55.6225 13.2695V15.521H57.6823V17.4371H55.6225V21.0778C55.6225 21.3174 55.6704 21.4611 55.7662 21.509C55.862 21.6048 56.0057 21.6527 56.1973 21.6527H57.6823V23.7126H55.5746C54.9997 23.7126 54.5207 23.6647 54.1374 23.6168C53.7542 23.5689 53.4668 23.4731 53.2273 23.2814C52.9877 23.0898 52.844 22.8982 52.7003 22.515C52.5566 22.1796 52.5566 21.7485 52.5566 21.1737V17.3892H50.9279V15.4731H52.5566V13.2695H55.6225ZM61.4189 14.8503H58.4009V12.6946H61.4189V14.8503ZM61.4189 23.7126H58.4009V15.521H61.4189V23.7126ZM64.868 23.6647C64.2931 23.521 63.8141 23.2335 63.4309 22.8503C63.0476 22.4671 62.7123 22.0359 62.4728 21.509C62.2332 20.982 62.0895 20.3593 62.0895 19.6407C62.0895 18.9222 62.2332 18.2994 62.4728 17.7725C62.7123 17.2455 63.0476 16.7665 63.4309 16.4311C63.8141 16.0479 64.2931 15.8084 64.868 15.6168C65.4428 15.4251 65.9698 15.3293 66.5925 15.3293C67.2153 15.3293 67.7901 15.4251 68.3171 15.6168C68.8919 15.8084 69.371 16.0479 69.7542 16.4311C70.1374 16.8144 70.4728 17.2455 70.7602 17.7725C70.9997 18.2994 71.1434 18.9222 71.1434 19.6407C71.1434 20.3593 70.9997 20.982 70.7602 21.509C70.5207 22.0359 70.1853 22.515 69.7542 22.8503C69.371 23.2335 68.8919 23.4731 68.3171 23.6647C67.7422 23.8084 67.2153 23.9521 66.5925 23.9521C65.9698 23.9042 65.4428 23.8084 64.868 23.6647ZM65.6344 18.012C65.347 18.3473 65.2512 18.8743 65.2512 19.5928C65.2512 19.976 65.2991 20.3114 65.3949 20.5509C65.4907 20.7904 65.5386 21.0299 65.6823 21.1737C65.8261 21.3174 65.9698 21.4611 66.1135 21.5569C66.2572 21.6527 66.4967 21.7006 66.6883 21.7006C66.88 21.7006 67.0716 21.6527 67.2632 21.5569C67.4069 21.4611 67.5985 21.3653 67.6943 21.1737C67.838 21.0299 67.8859 20.7904 67.9818 20.5509C68.0776 20.3114 68.1255 19.9281 68.1255 19.5928C68.1255 18.8263 67.9817 18.2994 67.7422 18.012C67.4548 17.6766 67.1195 17.5808 66.7841 17.5808C66.2093 17.5329 65.9219 17.7246 65.6344 18.012ZM75.838 15.6647C76.2692 15.4731 76.7482 15.3293 77.3231 15.3293C77.85 15.3293 78.2332 15.4251 78.6165 15.5689C78.9997 15.7126 79.2392 15.9521 79.4788 16.1916C79.6704 16.479 79.862 16.8144 79.9099 17.2455C79.9578 17.6766 80.0536 18.1078 80.0536 18.5868V23.7126H77.0356V19.1617C77.0356 19.018 77.0356 18.7784 76.9877 18.6347C76.9398 18.491 76.8919 18.2994 76.844 18.2036C76.7482 18.0599 76.7003 17.9641 76.5566 17.8683C76.4129 17.7725 76.2213 17.7246 76.0297 17.7246C75.6464 17.7246 75.359 17.8683 75.1674 18.1078C74.9279 18.3473 74.8321 18.7784 74.8321 19.4012V23.6647H71.8141V15.4731H74.8321V16.5749C75.1195 16.1916 75.4069 15.8563 75.838 15.6647ZM86.0416 17.7725C85.9458 17.6287 85.8979 17.5329 85.7542 17.4371C85.6105 17.3413 85.5147 17.2934 85.371 17.2934C85.2273 17.2455 85.0356 17.2455 84.8919 17.2455C84.5087 17.2455 84.1734 17.3413 83.9338 17.485C83.6943 17.6287 83.5506 17.9162 83.5027 18.2994H80.868C80.9159 17.9162 81.0117 17.5329 81.2033 17.1976C81.3949 16.8144 81.6824 16.5269 82.0177 16.2395C82.4009 15.9521 82.8321 15.7126 83.3111 15.5689C83.838 15.4251 84.4129 15.3293 85.1314 15.3293C85.7542 15.3293 86.2332 15.4252 86.7602 15.521C87.2392 15.6647 87.6704 15.8563 88.0536 16.1437C88.4368 16.4311 88.6764 16.7665 88.9159 17.2455C89.1075 17.7246 89.2033 18.2994 89.2033 18.9701V21.3653C89.2033 21.6527 89.2033 21.9401 89.2512 22.2275C89.2512 22.515 89.2991 22.8503 89.2991 23.0898C89.347 23.3772 89.347 23.6168 89.3949 23.8563H86.5686V22.7545C86.2332 23.1856 85.85 23.5689 85.371 23.7126C84.8919 23.9042 84.3171 24 83.7901 24C83.4069 24 83.0237 23.9521 82.6883 23.8563C82.3051 23.7126 82.0177 23.5689 81.7782 23.3293C81.4907 23.1377 81.2991 22.8503 81.1554 22.5629C81.0117 22.2754 80.9159 21.9401 80.9159 21.5569C80.9159 21.0778 81.0596 20.6946 81.2991 20.3114C81.5386 19.9281 81.9219 19.6886 82.353 19.4491C82.832 19.2096 83.4069 19.0659 84.0776 18.8743C84.7482 18.7305 85.5147 18.6347 86.377 18.5868V18.3473C86.1374 18.0599 86.0895 17.9162 86.0416 17.7725ZM84.4129 20.3593C84.0297 20.503 83.7901 20.7425 83.7901 21.1257C83.7901 21.2695 83.8859 21.509 84.0297 21.6527C84.1734 21.7964 84.4129 21.8922 84.7961 21.8922C84.9877 21.8922 85.1794 21.8443 85.371 21.7964C85.5147 21.7485 85.7063 21.6527 85.85 21.5569C85.9937 21.4132 86.0895 21.2695 86.1853 21.0778C86.2812 20.8862 86.3291 20.5988 86.3291 20.3114V20.0719C85.4668 20.1198 84.7961 20.2156 84.4129 20.3593ZM89.8261 23.7126V12.6946H92.844V23.7126H89.8261Z" fill="#121C30"/>
<path d="M17.9707 0V3.68862H20.9407V20.024H17.9707V23.7126H24.6294V0H17.9707ZM0.916779 23.7126H7.57546V20.024H4.65331V3.68862H7.57546V0H0.916779V23.7126Z" fill="#004E79"/>
<path d="M9.05945 0V3.68862L16.4846 11.8323V0H9.05945ZM9.05945 23.7126H16.4846V20.024L9.05945 11.8323V23.7126Z" fill="#80A6BC"/>
</g>
<defs>
<clipPath id="clip0_1325_17151">
<rect width="93" height="24" fill="white" transform="translate(0.459351)"/>
</clipPath>
</defs>
</svg>
