<svg width="99" height="24" viewBox="0 0 99 24" fill="none" xmlns="http://www.w3.org/2000/svg">
<path d="M6.90598 3.04133H28.6437V6.76071H28.2488L28.2948 4.37755H19.708V21.1561H22.1876V21.7071H13.7019V21.1561H15.9978V4.37755H7.31924V6.76071H6.90598V3.04133ZM29.6815 3.04133H38.2223V3.55791H35.7886V21.163H38.2131V21.714H29.6723V21.163H32.1519V3.55102H29.6723V3.04133H29.6815ZM45.7529 3H47.3876L55.3774 17.3954L63.3121 3H64.9009L69.355 21.1561H71.5958V21.7071H62.7794V21.1561H65.0478L62.2927 9.55025L55.2396 21.7209H53.5866L46.607 9.55714L43.6682 21.1699H45.808L45.7621 21.7209H39.2692L39.3152 21.1699H41.2988L45.7529 3ZM72.3396 3.04133H91.1386L91.1845 6.72627H90.8447L90.6886 4.45332L78.3825 4.35V11.7199H88.8519L89.0999 9.99796H89.559C89.4488 11.5684 89.4488 13.0974 89.559 14.6541H89.0999L88.8519 12.877H78.3825V20.4949H91.1478L91.1845 17.9602H91.5335V21.714H72.3396V21.1906L74.8192 21.163V3.59235L72.3396 3.55791V3.04821V3.04133Z" fill="#E90606"/>
</svg>
